<svg xmlns="http://www.w3.org/2000/svg" version="1.1" xmlns:xlink="http://www.w3.org/1999/xlink" xmlns:svgjs="http://svgjs.com/svgjs" width="1440" height="560" preserveAspectRatio="none" viewBox="0 0 1440 560"><g mask="url(&quot;#SvgjsMask1066&quot;)" fill="none"><rect width="1440" height="560" x="0" y="0" fill="rgba(21, 67, 96, 1)"></rect><path d="M0,407.274C95.683,409.685,192.61,474.794,279.901,435.535C368.622,395.632,410.363,294.337,449.312,205.194C487.758,117.202,539.02,16.346,501.718,-72.136C464.175,-161.191,328.288,-156.59,265.734,-230.26C202.097,-305.205,236.666,-458.003,144.656,-492.652C55.125,-526.368,-18.838,-403.241,-109.052,-371.398C-192.319,-342.007,-295.582,-371.831,-362.115,-313.774C-430.318,-254.259,-457.311,-156.502,-459.034,-65.999C-460.662,19.51,-402.087,89.778,-371.315,169.574C-338.102,255.7,-348.724,371.887,-270.981,421.655C-193.225,471.431,-92.295,404.949,0,407.274" fill="#11364d"></path><path d="M1440 1075.2269999999999C1536.267 1101.504 1655.34 1074.3200000000002 1723.989 1001.896 1792.2939999999999 929.835 1756.205 811.8389999999999 1780.8310000000001 715.652 1799.944 640.998 1866.16 576.526 1852.301 500.72 1838.516 425.321 1756.226 387.222 1709.656 326.342 1659.092 260.241 1646.377 152.498 1566.942 127.67500000000001 1487.701 102.91300000000001 1415.833 183.27300000000002 1337.218 209.957 1262.808 235.214 1168.532 220.796 1117.233 280.321 1065.94 339.83799999999997 1088.414 430.126 1080.136 508.259 1072.211 583.065 1039.155 660.366 1069.686 729.117 1100.289 798.031 1185.687 818.511 1240.776 869.999 1311.87 936.446 1346.122 1049.6019999999999 1440 1075.2269999999999" fill="#195073"></path></g><defs><mask id="SvgjsMask1066"><rect width="1440" height="560" fill="#ffffff"></rect></mask></defs></svg>